# xmcd CD database file
#
# Track frame offsets:
#	183
#	33398
#	73613
#	107238
#	133883
#	158820
#	179613
#	211215
#
# Disc length: 3217 seconds
#
# Revision: 0
# Processed by: cddbd v1.5.2PL0 Copyright (c) Steve Scherf et al.
# Submitted via: CDex 1.70beta2
#
DISCID=740c8f08
DTITLE=Harry Beckett - Images of Clarity
DYEAR=1992
DGENRE=Jazz
TTITLE0=Images of Clarity
TTITLE1=Put it Right, Mr. Smoothie
TTITLE2=For You, For Me
TTITLE3=Changing Times
TTITLE4=Warm Canto
TTITLE5=Starts
TTITLE6=More In, More Out
TTITLE7=A Day Like This
EXTD=YEAR: 1992
EXTT0=
EXTT1=
EXTT2=
EXTT3=
EXTT4=
EXTT5=
EXTT6=
EXTT7=
PLAYORDER=
